<svg xmlns="http://www.w3.org/2000/svg" viewBox="0 0 250 73">
	<g id="Layer_2" data-name="Layer 2">
		<g id="Layer_1-2" data-name="Layer 1">
			<path class="cls-1"
				d="M58.1,39.9a.67.67,0,0,1,.51.17c.2.14.26.24.18.32l-.08,0a10.5,10.5,0,0,1-4.07.43,12.54,12.54,0,0,1-4.17-1.12,12.08,12.08,0,0,1-3.54-2.44,9.07,9.07,0,0,1-2.21-3.44,7.44,7.44,0,0,1-.33-1.43c-.06-.49-.1-1.09-.12-1.79s-.05-1.19-.07-1.47a5.43,5.43,0,0,0-.17-.94,6,6,0,0,1-.19-.89L43.7,27a6.7,6.7,0,0,0-.58.39l-.36.32a4.09,4.09,0,0,0-.37.36l-.33.32-.36.38-.32.34-.34.39-.32.35-1.16,1.3L38.3,32.57l-1.15,1.24c-.45.49-.89.94-1.31,1.35S35,36,34.56,36.35l-.61.53c-.15.13-.36.29-.64.49a4.45,4.45,0,0,1-.74.46,4,4,0,0,1-.74.25,2.29,2.29,0,0,1-.82.06,2.74,2.74,0,0,1-1.55-.66A2.26,2.26,0,0,1,28.67,36a4.07,4.07,0,0,1,0-.5,3.41,3.41,0,0,1,0-.55c0-.19.05-.36.08-.52a4.85,4.85,0,0,1,.11-.55c0-.21.09-.38.13-.52s.09-.31.15-.53l.13-.49c.25-.94.64-2.16,1.18-3.65a73.84,73.84,0,0,1,3.1-7.36q1.77-3.66,4.32-8.36L41,7.32a0,0,0,0,0,0,0l0,0Q39,9.5,37.07,11.89c-1.28,1.59-2.58,3.24-3.88,5s-2.46,3.29-3.48,4.69L26,26.65c-1.45,2-2.62,3.61-3.49,4.8l-2.41,3.28-2.52,3.42-2.4,3.23c-1,1.4-1.9,2.54-2.56,3.39S11.13,46.69,10.14,48s-1.87,2.37-2.66,3.32-1.64,2-2.58,3.07S3,56.49,2.14,57.48q.25.24.15.45a.68.68,0,0,1-.49.4,1.14,1.14,0,0,1-.68-.06,2.35,2.35,0,0,1-.64-.38,1.33,1.33,0,0,1-.4-.52,1.5,1.5,0,0,1-.08-.5,2.33,2.33,0,0,1,.06-.53,6,6,0,0,1,.17-.58c.07-.2.15-.39.22-.56l.22-.54q.12-.3.18-.48Q1.69,51.63,2,50.76,3.72,45.23,4.76,42t2.62-8.07c1-3.2,2-6.12,3-8.77q2-5.8,4.5-12.57c.63-1.7,1.45-3.76,2.46-6.2.14-.32.34-.82.6-1.51s.49-1.23.67-1.64.39-.89.67-1.44A12.19,12.19,0,0,1,20.08.28.66.66,0,0,1,20.63,0a2,2,0,0,1,1.43.55.74.74,0,0,1,.29.55v0a.8.8,0,0,1,.23.24,3.3,3.3,0,0,1,.25,1.21,5.57,5.57,0,0,1-.13,1.25,10.1,10.1,0,0,1-.42,1.35c-.2.5-.38.92-.56,1.27s-.38.76-.63,1.24-.42.84-.52,1.07C18.16,14,16.9,16.7,16.76,17q-2,4.26-3.46,7.15c-.67,1.78-1.31,3.47-1.9,5.08Q8.67,36.67,6.34,43.48L4,50.28c-.36,1.08-.74,2.21-1.13,3.41l-.32,1c-.14.44-.24.76-.32,1s-.08.27-.15.49-.13.38-.16.48a.29.29,0,0,1,0,.09.26.26,0,0,0,0,.07l.73-.85c.4-.46.7-.82.91-1.07Q6.84,51,10.65,46t6.1-8.06q2.3-3.11,6.69-9.15L24.75,27q7.72-10.6,9.61-13.23l3.69-5.08.89-1.16c.39-.5.73-1,1-1.37s.56-.82.79-1.22a5.65,5.65,0,0,1,1.67-2,1.37,1.37,0,0,1,.48-.2,3.16,3.16,0,0,1,.61,0h.06l.11,0,.1,0h.05l0,0h0a4.07,4.07,0,0,1,.65.28,1.6,1.6,0,0,1,.63.66,1.23,1.23,0,0,1,.06.39,1.6,1.6,0,0,1,0,.43c0,.15-.08.29-.13.43a3.35,3.35,0,0,1-.19.45c-.07.16-.14.3-.2.42s-.14.26-.21.4-.13.25-.17.33c-.22.44-.46.93-.74,1.46l-.68,1.3c-.18.34-.45.83-.81,1.48s-.6,1.09-.73,1.34Q38.8,16.8,37,20.38c-1.23,2.38-2.38,4.76-3.45,7.12a48.33,48.33,0,0,0-2.74,7.3c0,.06,0,.16-.08.3s-.07.25-.09.34-.05.2-.08.33a1.72,1.72,0,0,0-.05.35,1.5,1.5,0,0,0,0,.29.44.44,0,0,0,.11.25.56.56,0,0,0,.23.16.59.59,0,0,0,.23,0,.54.54,0,0,0,.25,0l.26-.08.27-.14.25-.17a1.88,1.88,0,0,0,.26-.19l.23-.19.22-.19.19-.16a35.21,35.21,0,0,0,3.14-3c.44-.46,1-1.1,1.74-1.91s1.39-1.56,2-2.23,1.25-1.29,1.84-1.82A2.25,2.25,0,0,1,43.86,26c.63.19,1.11.81,1.45,1.86a7.63,7.63,0,0,1,.3,1.63c0,.6.08,1.23.1,1.89a11.39,11.39,0,0,0,.15,1.65,7.59,7.59,0,0,0,2.3,4.17,10.21,10.21,0,0,0,4.61,2.6A10.82,10.82,0,0,0,58.1,39.9Zm-14.21-13c0,.07.06.06.13,0s.07-.09,0-.09l-.07,0-.05,0Z" />
			<path class="cls-1"
				d="M71,38.83a.61.61,0,0,1,.23.1c.08.07.1.12,0,.17a.84.84,0,0,1-.23.12,2,2,0,0,1-.36.08l-.27.05-.47.1-.47.12-1,.21-.94.22-1.42.32-1.41.33A1.47,1.47,0,0,1,65,41a1.25,1.25,0,0,1,0,1.13,1.74,1.74,0,0,1-.8.76,3.13,3.13,0,0,1-1.16.35h-.49a2.31,2.31,0,0,1-.57-.06,2.76,2.76,0,0,1-.53-.19.88.88,0,0,1-.37-.32.76.76,0,0,1-.11-.5,1.57,1.57,0,0,1,.08-.33,2.45,2.45,0,0,1,.11-.3l.16-.33a3.21,3.21,0,0,0,.14-.29c.35-.76.56-1.2.62-1.34l.32-.67a2.47,2.47,0,0,0,.15-.34c.06-.15.11-.26.15-.34l.31-.67a3.58,3.58,0,0,1,.18-.32,1,1,0,0,1,.34-.26,1.1,1.1,0,0,1,.87.19c.39.22.54.42.45.61a1.05,1.05,0,0,1-.24.61c-.06.08-.13.2-.22.35s-.15.25-.17.28-.17.28-.32.49a.66.66,0,0,1,.17.12,1,1,0,0,1,.3.39c1.35-.24,2.32-.42,2.9-.54.27,0,.65-.12,1.16-.23l.85-.17L69.8,39c.27-.07.51-.12.69-.15A3.33,3.33,0,0,1,71,38.83Zm-6.69,2.32a1.11,1.11,0,0,0-.18-.37l-.18,0-.19,0a.65.65,0,0,1-.61-.21c-.06.11-.16.27-.29.47l-.31.47-.19.28-.21.35a1,1,0,0,0-.12.22,1.3,1.3,0,0,0-.05.18l.1,0h.1a2.5,2.5,0,0,0,.59,0,2.39,2.39,0,0,0,1.13-.5A1,1,0,0,0,64.34,41.15Z" />
			<path class="cls-1"
				d="M91.32,39a.48.48,0,0,1,.43.14c.17.12.2.2.1.25l0,0c-.81.23-2,.65-3.67,1.23s-2.89,1-3.76,1.24a4,4,0,0,1-1.72.14,3.46,3.46,0,0,1-1.62-.6,2.41,2.41,0,0,1-1-1.13,1.73,1.73,0,0,1-.12-.76,1,1,0,0,1,0-.16.35.35,0,0,1,0-.12v-.13l0,0h0l-.08,0-.09,0-.14,0-.16,0a10.68,10.68,0,0,0-1.49.47c-.49.19-1.09.46-1.8.79s-1.19.55-1.42.65l-.76.34-.78.28a5.7,5.7,0,0,1-.88.24,4.74,4.74,0,0,1-.8.06,2.66,2.66,0,0,1-.82-.12,2,2,0,0,1-1.29-1.06,2,2,0,0,1,0-1.65c.62-1.56,1.28-2.35,2-2.36A1,1,0,0,1,72,37a.76.76,0,0,1,.33.38,1.78,1.78,0,0,1,.1.53,1.36,1.36,0,0,1-.08.57A14.62,14.62,0,0,1,71.79,40s0,.1-.06.19l-.09.24a.76.76,0,0,1-.09.16.51.51,0,0,1-.22.12A9,9,0,0,0,73,40.34c.57-.19,1.12-.39,1.63-.61l1.56-.64a12.14,12.14,0,0,1,1.64-.55,7.7,7.7,0,0,1,1.66-.23,2.3,2.3,0,0,1,1,.22,1.06,1.06,0,0,1,.62.69,1.3,1.3,0,0,1,0,.47,1.61,1.61,0,0,0,0,.42,1.16,1.16,0,0,0,.37.8,1.77,1.77,0,0,0,.83.45,2,2,0,0,0,.55.08,2.5,2.5,0,0,0,.64-.06l.53-.11a5.5,5.5,0,0,0,.62-.18l.53-.16c.59-.18,1.58-.49,3-1S90.56,39.2,91.32,39Z" />
			<path class="cls-1"
				d="M100.78,38.86a.69.69,0,0,1,.39.21c.16.16.17.26,0,.3h-.07a9.72,9.72,0,0,1-2.85,0,6.11,6.11,0,0,1-2.51-.93c-.08.1-.17.22-.25.34l-.21.32a2.31,2.31,0,0,0-.21.4l-.17.34-.18.41-.16.36c-.28.62-.51,1.08-.69,1.4a5.71,5.71,0,0,1-.61.89,1.25,1.25,0,0,1-.46.3,1.78,1.78,0,0,1-1.36-.1,1.86,1.86,0,0,1-1-.89,1.4,1.4,0,0,1-.09-.29,1.58,1.58,0,0,1,0-.28.91.91,0,0,1,0-.3l.06-.27c0-.05.05-.15.1-.3l.09-.28.68-2.11c.18-.53.31-.88.38-1a.36.36,0,0,1,0-.11.88.88,0,0,0,0-.1.56.56,0,0,0,0-.08.56.56,0,0,1,0-.08.43.43,0,0,0,0-.07.25.25,0,0,1,0-.07l.06-.06.07-.06.08-.05.09,0h0l0,0,0,0,0,0a1.23,1.23,0,0,1,.66.11,1.19,1.19,0,0,1,.52.32,1.35,1.35,0,0,1,.21.38.78.78,0,0,1,0,.38c0,.09,0,.21-.06.38a4.63,4.63,0,0,1,1.14-1,.88.88,0,0,1,.73,0,1.15,1.15,0,0,1,.62.42,2.15,2.15,0,0,0,.8.67,5,5,0,0,0,1.15.36A26.23,26.23,0,0,0,100.78,38.86Z" />
			<path class="cls-1"
				d="M124.82,38.87a.9.9,0,0,1,.56.21c.25.18.34.32.26.42a.17.17,0,0,1-.13.08l-3.42,1-3.43,1-.47.14a4.35,4.35,0,0,1-.51.14l-.46.13-.52.14-.47.1-.52.1-.47.07a4.87,4.87,0,0,1-.51,0,9.28,9.28,0,0,1-2.22-.09,7.68,7.68,0,0,1-2.07-.58,2.81,2.81,0,0,1-1.39-1.16,2,2,0,0,1-.22-1.52,26.57,26.57,0,0,0-4.48,2.12l-.46.27-.46.28L103,42a3.71,3.71,0,0,1-.47.21l-.44.15a1.65,1.65,0,0,1-.47.09h-.45a1.21,1.21,0,0,1-.48-.11,4.14,4.14,0,0,1-.46-.24,3.87,3.87,0,0,1-.48-.37c-.4-.38-.48-.69-.24-.95s.65-.64,1-.94a13.65,13.65,0,0,1,1.14-.94,10.68,10.68,0,0,1,1.27-.84,6.61,6.61,0,0,1,1.34-.55,3.79,3.79,0,0,1,1.35-.14,2.94,2.94,0,0,1,1,.3,1.59,1.59,0,0,1,.75.69l1.12-.32c.23-.07.54-.17,1-.32a10.65,10.65,0,0,0,1.06-.42.87.87,0,0,1,.62,0,1.8,1.8,0,0,1,.72.39.45.45,0,0,1,.17.54l-.14.26c-.06.12-.13.23-.2.36l-.22.39-.2.42c0,.13-.1.26-.13.37a.74.74,0,0,0,0,.31.26.26,0,0,0,.1.2,1.08,1.08,0,0,0,.32.14l.37.09.45.07.35,0a10,10,0,0,0,2.63-.11q1.71-.24,4.92-1C122.31,39.34,123.86,39,124.82,38.87Z" />
			<path class="cls-1"
				d="M140.67,16.44a.55.55,0,0,1,.13.28.29.29,0,0,1-.1.27,1.28,1.28,0,0,1-.41.19A3.45,3.45,0,0,0,140,18c-.1.38-.18.77-.26,1.17s-.13.64-.15.72c-.43,1.56-.72,2.58-.87,3.05-.2.66-.5,1.7-.91,3.11s-.73,2.49-.95,3.22c-.52,1.68-1.39,4.67-2.63,9a.29.29,0,0,1,0,.15c-.07.26-.24.81-.48,1.65s-.44,1.48-.57,1.93q-3,10.68-3.68,13-1.08,3.88-1.65,6.15c-.33,1.32-.59,2.52-.78,3.59,0,.12,0,.36-.1.71s-.08.6-.11.77a2.36,2.36,0,0,1-.23.61,1.6,1.6,0,0,1-.47.56.81.81,0,0,1-.75,0,.91.91,0,0,1-.59-.49,2.22,2.22,0,0,1-.11-.65,2.26,2.26,0,0,1,.07-.63,5.22,5.22,0,0,1,.19-.56c.07-.16.15-.37.27-.62s.19-.45.26-.62c.29-.79.67-2,1.13-3.5q.58-1.94,2-7.14,2.4-8.84,3.72-14l-.15.06-.15.05-1.37.55q-1.14.48-2,.93a17.41,17.41,0,0,0-2,1.22,3.48,3.48,0,0,1-.44.3,2.47,2.47,0,0,1-.43.21,1.66,1.66,0,0,1-.53.1,2.57,2.57,0,0,1-1.22-.25,2.53,2.53,0,0,1-1-.76.52.52,0,0,1,0-.74,12.56,12.56,0,0,1,3.65-2.72,5.69,5.69,0,0,1,1.09-.42,2.78,2.78,0,0,1,1,0,4.55,4.55,0,0,1,1.8.7h0l.57-.19.73-.26.25-.08.34-.12a1,1,0,0,0,.22-.13h0q2.26-9,3.44-13.44c.13-.51.32-1.26.56-2.26s.47-1.9.68-2.69.43-1.54.66-2.23a4.63,4.63,0,0,1,.18-.49,1.9,1.9,0,0,1,.21-.35.78.78,0,0,1,.34-.26,1.47,1.47,0,0,1,.5-.07A1.78,1.78,0,0,1,140.67,16.44Z" />
			<path class="cls-1"
				d="M179.19,48a26.82,26.82,0,0,1,2.93.76c2.08.73,3.16,1.77,3.22,3.13a3.49,3.49,0,0,1-.13,1s-.05.09-.15.17a2.31,2.31,0,0,1-.28.19q-.15.09-.15.06a7.92,7.92,0,0,0-.48-1.1,4,4,0,0,0-.69-.89c-.28-.26-.53-.49-.77-.69a4.34,4.34,0,0,0-.95-.54l-1-.41a9.51,9.51,0,0,0-1.1-.32l-1.09-.25-1.15-.22-.86-.16c-2.63-.52-5.91-1.09-9.85-1.69q-8.16-1.26-9.86-1.54l-1.44-.22q-.57,1.65-1.69,5c-.37,1.08-.75,2.21-1.14,3.41-.06.21-.17.54-.31,1s-.25.76-.32,1-.08.27-.16.49l-.15.48a.63.63,0,0,1-.3.59,1.36,1.36,0,0,1,.55.32.35.35,0,0,1,.11.41.7.7,0,0,1-.49.4,1.13,1.13,0,0,1-.68-.06,2.26,2.26,0,0,1-.65-.38,1.33,1.33,0,0,1-.4-.52,1.5,1.5,0,0,1-.08-.5,2.33,2.33,0,0,1,.06-.53,4.06,4.06,0,0,1,.17-.58,6,6,0,0,1,.22-.56l.22-.54q.12-.3.18-.48.84-2.55,1.11-3.42c.4-1.27,1-3.17,1.82-5.72a25.6,25.6,0,0,1-3.82-.84,1.91,1.91,0,0,1-1-.3l-.14,0h0v0h0a1.74,1.74,0,0,1-.35-.29,1.37,1.37,0,0,1-.21-.3.3.3,0,0,1,0-.26.36.36,0,0,1,.24-.18,53.78,53.78,0,0,0,6.81-2.67q2.85-8.86,5-15c1.3-3.79,2.81-8,4.5-12.57q.58-1.56,2-5l-1.17.19a44.12,44.12,0,0,0-15.26,6.7,3.64,3.64,0,0,0-.35.24l-.42.33-.33.27c-.14.19-.33.48-.56.87s-.46.72-.67,1a5.84,5.84,0,0,1-.65.78,1.55,1.55,0,0,1-1.09.44,2,2,0,0,1-1.23-.37,1.29,1.29,0,0,1-.44-1.61,2.32,2.32,0,0,1,.39-.59c.18-.2.36-.38.54-.55s.4-.34.66-.53l.65-.45.63-.4.47-.3q1.84-1.23,4-2.39T156.45,9a39.52,39.52,0,0,1,5.34-1.85,28.37,28.37,0,0,1,5.29-1L167.54,5c.2-.52.37-.94.51-1.27s.3-.7.49-1.13.4-.85.6-1.23.42-.73.64-1.06a.68.68,0,0,1,.55-.28,2,2,0,0,1,1.43.55.74.74,0,0,1,.29.55v0a1,1,0,0,1,.23.24,3.27,3.27,0,0,1,.25,1.14,4.32,4.32,0,0,1-.13,1.27A10.06,10.06,0,0,1,172,5c-.15.39-.33.82-.55,1.28a10.76,10.76,0,0,1,8.58,6.8,9.83,9.83,0,0,1,.77,2.95,10.42,10.42,0,0,1-.09,2.86,12.77,12.77,0,0,1-.85,2.75,16,16,0,0,1-1.39,2.59,23.54,23.54,0,0,1-1.82,2.42c-.7.81-1.38,1.54-2.05,2.19s-1.39,1.3-2.16,1.95a70.87,70.87,0,0,1-11.1,7.55c-1.16.66-2.6,1.41-4.31,2.27-.11.32-.28.8-.51,1.43s-.4,1.11-.51,1.43l-.17.5.95.16,1.12.2.95.16c1,.16,2.58.42,4.86.77l5.24.84Q175.07,47.12,179.19,48ZM152,43.15c.82.18,1.48.34,2,.46l.54-1.71-1.25.63Zm9.14-13.93q-1,2.84-3.41,9.62c1-.5,1.9-1,2.76-1.45a66.59,66.59,0,0,0,11-7.24c.71-.59,1.39-1.19,2-1.79s1.27-1.27,1.93-2a22.71,22.71,0,0,0,1.75-2.23,17,17,0,0,0,1.38-2.41,12.8,12.8,0,0,0,.89-2.56,9.72,9.72,0,0,0,.21-2.67,9.23,9.23,0,0,0-.56-2.77A10.78,10.78,0,0,0,176.87,10a7.9,7.9,0,0,0-3.43-2.22A11.39,11.39,0,0,0,171,7.33l-.24.47-.27.53c-.07.15-.14.28-.19.41L166.46,17c-1.34,2.84-2.49,5.23-3.46,7.15Q162.08,26.53,161.1,29.22Z" />
			<path class="cls-1"
				d="M193.06,37.55l-.46.3-.42.28c-.12.07-.27.19-.46.33l-.4.31c-.08,0-.23.17-.45.35l-.4.32s-.18.16-.43.37l-.4.32-1.28,1.07L187,42.33c.34,0,.74.09,1.2.16,1.45.24,2.37.4,2.76.49a.72.72,0,0,1,.25.12.3.3,0,0,1,.15.21.11.11,0,0,1-.06.15.58.58,0,0,1-.21,0l-.84-.09-1-.1c-.3,0-.58,0-.85,0l-.69,0-.7,0h-.62l-.28,0a2.21,2.21,0,0,1-.32-.07,1.69,1.69,0,0,1-.27-.11h0l0,0h0l0,0h0a1.39,1.39,0,0,1-.21-.17,1,1,0,0,1-.36-.35.27.27,0,0,1,.07-.33c.52-.41,1.62-1.34,3.29-2.82.66-.57,1.28-1.09,1.85-1.54a1.53,1.53,0,0,0-.3,0,2,2,0,0,1-.34,0,10,10,0,0,1-1.71-.45.83.83,0,0,0-.63,0,.69.69,0,0,0-.4.54c0,.12-.14.13-.36,0s-.25-.17-.27-.25a1,1,0,0,1,0-.65.83.83,0,0,1,.45-.45,1.24,1.24,0,0,1,.45-.1l.41,0,.48.11.41.1a9.76,9.76,0,0,0,3.61.05.93.93,0,0,1,.53.07,1.9,1.9,0,0,1,.5.3,1.6,1.6,0,0,1,.16.19.74.74,0,0,1,.1.26C193.2,37.43,193.16,37.5,193.06,37.55Z" />
			<path class="cls-1"
				d="M210.8,38.87a.9.9,0,0,1,.56.21c.25.18.34.32.26.42a.17.17,0,0,1-.13.08c-3.92,1.14-6.11,1.77-6.55,1.91a25.53,25.53,0,0,1-4,.93,10.13,10.13,0,0,1-3.89-.41,5.93,5.93,0,0,1-.81-.31,5.73,5.73,0,0,1-.75-.45,2.22,2.22,0,0,1-.61-.65,1.71,1.71,0,0,1-.28-.81,1.92,1.92,0,0,1,.46-1.46,3.8,3.8,0,0,1,1.36-1,.9.9,0,0,1,.61,0,1.77,1.77,0,0,1,.69.37.48.48,0,0,1,.18.54c-.08.17-.19.41-.35.7s-.26.49-.31.61a1.9,1.9,0,0,0-.21.63.5.5,0,0,0,0,.19c0,.09,0,.15,0,.17l.16.06.29.06.29.07.19,0,.17.05.12,0h0a9,9,0,0,0,2.63,0c1.21-.15,2.92-.48,5.12-1S209.87,39,210.8,38.87Zm-15-2.94-.13-.09a.51.51,0,0,1-.12-.13.12.12,0,0,1,0-.15q.12-.15.66-.72a8,8,0,0,1,.71-.59,5.88,5.88,0,0,1,.9-.52l.38-.19a2.25,2.25,0,0,1,.33-.1,1.21,1.21,0,0,1,.42,0,.82.82,0,0,1,.65.37.35.35,0,0,1,0,.13h0l0,0a.1.1,0,0,0,0,0h0l-.06.16-.2.13a3.68,3.68,0,0,1-.4.23l-.39.22L198,35l-.42.24-.45.24-.89.46A.54.54,0,0,1,195.78,35.93Z" />
			<path class="cls-1"
				d="M227,38.8a.36.36,0,0,1,.26,0,.54.54,0,0,1,.27.16c.08.08.09.15,0,.22q-3.1,3.54-7.78,8.44c-.68,2.51-1.32,4.83-1.93,7s-1.24,4.54-2,7.25c-.08.31-.33,1.39-.77,3.24s-.8,3.26-1.11,4.21l-.16.5c0,.15-.13.37-.24.67a5.85,5.85,0,0,1-.34.78c-.11.22-.24.46-.39.73a2.5,2.5,0,0,1-.47.62,1.92,1.92,0,0,1-.5.36.68.68,0,0,1-.56,0,1.37,1.37,0,0,1-.58-.45,3.22,3.22,0,0,1-.49-.85,5.7,5.7,0,0,1-.31-.94q-.1-.42-.24-1.08c-.09-.44-.16-.74-.2-.91A21.88,21.88,0,0,0,208,64.47a8.61,8.61,0,0,0-.53-.93l-.64-1a6.67,6.67,0,0,1-.52-1,3.15,3.15,0,0,1-.24-1,1.88,1.88,0,0,1,.09-.57,2.49,2.49,0,0,1,.24-.49,3.21,3.21,0,0,1,.36-.45c.16-.17.3-.3.42-.41l.46-.38.41-.36q2.73-2.48,6.28-6l.92-.94,1.07-1.11.92-1q1.42-5.67,2.75-10.14l-.21.06a1.49,1.49,0,0,0-.25.07l-.2.06c-.34.1-.84.28-1.51.54a28.44,28.44,0,0,0-2.93,1.31c-.3.15-.73.41-1.32.77s-1,.63-1.33.79a2.35,2.35,0,0,1-1.63.13,2.79,2.79,0,0,1-1.4-.9.51.51,0,0,1,0-.74,13.06,13.06,0,0,1,2.4-2,8.89,8.89,0,0,1,2.67-1.3,4,4,0,0,1,1-.06,2.77,2.77,0,0,1,1,.27,1.65,1.65,0,0,1,.74.66l.23-.09.26-.09.74-.2.88-.25c.26-.08.49-.17.72-.26h0c0-.12.14-.2.35-.22a1,1,0,0,1,.45,0,1.82,1.82,0,0,1,.54.19,1.84,1.84,0,0,1,.76.43.62.62,0,0,1,.24.58c-.53,2.13-1.14,4.54-1.86,7.24Q224.59,41.18,227,38.8Zm-13.15,25q1.41-6.93,2.9-13l-.91.94-1,1q-3.06,3.09-5.63,5.43l-.46.4-.48.42c-.1.09-.23.23-.4.41a3.34,3.34,0,0,0-.37.46,3.68,3.68,0,0,0-.25.46,1.58,1.58,0,0,0-.13.53,1.91,1.91,0,0,0,.06.56,2.5,2.5,0,0,0,.22.65c.13.23.32.61.6,1.11s.51,1,.7,1.35.37.77.52,1.14a28.64,28.64,0,0,1,1.2,3.78,16.7,16.7,0,0,0,.71,2.31q0,.12.09.27a.59.59,0,0,0,.06.19s0,0,.09,0a.45.45,0,0,0,.2-.09.56.56,0,0,0,.23-.25,4,4,0,0,0,.2-.5c.07-.21.11-.32.11-.33a17.67,17.67,0,0,0,.6-1.82c.18-.67.32-1.25.41-1.73s.22-1.12.37-1.93S213.77,64.13,213.85,63.75Z" />
			<path class="cls-1"
				d="M249.15,38.87a.9.9,0,0,1,.56.21c.25.18.34.32.26.42a.17.17,0,0,1-.13.08l-3.42,1-3.43,1-.46.14-.51.14-.47.13-.51.14-.48.1-.52.1a4.34,4.34,0,0,1-.47.07,4.4,4.4,0,0,1-.51,0,9.3,9.3,0,0,1-2.22-.09,7.68,7.68,0,0,1-2.07-.58,2.81,2.81,0,0,1-1.39-1.16,2,2,0,0,1-.22-1.52,26.57,26.57,0,0,0-4.48,2.12l-.46.27-.46.28-.45.24a3.73,3.73,0,0,1-.46.21l-.45.15a1.59,1.59,0,0,1-.47.09h-.45a1.25,1.25,0,0,1-.48-.11,4.14,4.14,0,0,1-.46-.24,3.87,3.87,0,0,1-.48-.37c-.4-.38-.48-.69-.24-.95s.65-.64,1-.94a13.65,13.65,0,0,1,1.14-.94,11.55,11.55,0,0,1,1.27-.84,6.61,6.61,0,0,1,1.34-.55,3.79,3.79,0,0,1,1.35-.14,3,3,0,0,1,1,.3,1.61,1.61,0,0,1,.74.69L232.8,38c.22-.07.53-.17.94-.32a10.65,10.65,0,0,0,1.06-.42.9.9,0,0,1,.63,0,1.83,1.83,0,0,1,.71.39.45.45,0,0,1,.17.54c0,.06-.07.14-.14.26s-.13.23-.2.36l-.22.39c-.07.15-.14.29-.19.42a2.48,2.48,0,0,0-.14.37,1,1,0,0,0,0,.31.26.26,0,0,0,.1.2,1.22,1.22,0,0,0,.32.14l.37.09.45.07.35,0a10,10,0,0,0,2.63-.11c1.15-.16,2.78-.48,4.92-1S248.19,39,249.15,38.87Z" />
		</g>
	</g>
</svg>