<svg xmlns="http://www.w3.org/2000/svg" viewBox="0 0 250 73.04"><defs><style>.cls-1{fill:#fff;}</style></defs><g id="Layer_2" data-name="Layer 2"><g id="Layer_1-2" data-name="Layer 1"><g id="Layer_2-2" data-name="Layer 2"><g id="Layer_1-2-2" data-name="Layer 1-2"><path class="cls-1" d="M58.1,39.9a.68.68,0,0,1,.51.17c.2.14.26.24.18.32h-.08a10.4,10.4,0,0,1-4.07.43,12.59,12.59,0,0,1-4.17-1.12,11.85,11.85,0,0,1-3.54-2.44,9.09,9.09,0,0,1-2.21-3.44,6.91,6.91,0,0,1-.33-1.43c-.06-.49-.1-1.09-.12-1.79s-.05-1.19-.07-1.47a6,6,0,0,0-.17-.94,5.42,5.42,0,0,1-.19-.89L43.7,27c-.2.12-.39.25-.58.39l-.36.32a4.17,4.17,0,0,0-.37.36l-.33.32-.36.38-.32.34L41,29.5l-.32.35-1.16,1.3L38.3,32.57l-1.15,1.24c-.45.49-.89.94-1.31,1.35S35,36,34.56,36.35l-.61.53c-.15.13-.36.29-.64.49a4.35,4.35,0,0,1-.74.46,4,4,0,0,1-.74.25,2.28,2.28,0,0,1-.82.06,2.71,2.71,0,0,1-1.55-.66A2.24,2.24,0,0,1,28.67,36a4.17,4.17,0,0,1,0-.5,5,5,0,0,1,0-.55,2.7,2.7,0,0,1,.08-.52,5.35,5.35,0,0,1,.11-.55,1.72,1.72,0,0,1,.13-.52l.15-.53.13-.49c.25-.94.64-2.16,1.18-3.65a73,73,0,0,1,3.1-7.36q1.77-3.66,4.32-8.36L41,7.32h0c-1.33,1.45-2.64,3-3.93,4.57s-2.58,3.24-3.88,5-2.46,3.29-3.48,4.69L26,26.65l-3.49,4.8L20.1,34.73l-2.52,3.42-2.4,3.23c-1,1.4-1.9,2.54-2.56,3.39S11.13,46.69,10.14,48s-1.87,2.37-2.66,3.32-1.64,2-2.58,3.07S3,56.49,2.14,57.48q.25.24.15.45a.66.66,0,0,1-.49.4,1.13,1.13,0,0,1-.68-.06,2.31,2.31,0,0,1-.64-.38,1.45,1.45,0,0,1-.4-.52,1.69,1.69,0,0,1-.08-.5,2.33,2.33,0,0,1,.06-.53,5.54,5.54,0,0,1,.17-.58c.07-.2.15-.39.22-.56l.22-.54q.12-.3.18-.48c.56-1.7.94-2.84,1.15-3.42Q3.72,45.23,4.76,42c.69-2.15,1.57-4.84,2.62-8.07s2-6.12,3-8.77q2-5.81,4.5-12.57c.63-1.7,1.45-3.76,2.46-6.2.14-.32.34-.82.6-1.51s.49-1.23.67-1.64.39-.89.67-1.44a13,13,0,0,1,.8-1.52A.67.67,0,0,1,20.63,0a2,2,0,0,1,1.43.55.74.74,0,0,1,.29.55h0a.88.88,0,0,1,.23.24,3.36,3.36,0,0,1,.25,1.21A5.83,5.83,0,0,1,22.7,3.8a10.55,10.55,0,0,1-.42,1.35c-.2.5-.38.92-.56,1.27s-.38.76-.63,1.24-.42.84-.52,1.07C18.16,14,16.9,16.7,16.76,17c-1.33,2.84-2.49,5.22-3.46,7.15-.67,1.78-1.31,3.47-1.9,5.08Q8.67,36.67,6.34,43.48L4,50.28c-.36,1.08-.74,2.21-1.13,3.41l-.32,1c-.14.44-.24.76-.32,1s-.08.27-.15.49l-.16.48v.16L2.65,56c.4-.46.7-.82.91-1.07Q6.85,51,10.65,46t6.1-8.06q2.3-3.11,6.69-9.15L24.75,27q7.72-10.6,9.61-13.23l3.69-5.08.89-1.16c.39-.5.73-1,1-1.37a14.13,14.13,0,0,0,.79-1.22,5.67,5.67,0,0,1,1.67-2,1.44,1.44,0,0,1,.48-.2,3.11,3.11,0,0,1,.61,0h.32a4.11,4.11,0,0,1,.65.28,1.54,1.54,0,0,1,.63.66,1.32,1.32,0,0,1,.06.39,1.55,1.55,0,0,1,0,.43,1.33,1.33,0,0,1-.13.43,3,3,0,0,1-.19.45c-.07.16-.14.3-.2.42l-.21.4-.17.33C44,7,43.79,7.46,43.51,8l-.68,1.3c-.18.34-.45.83-.81,1.48s-.6,1.09-.73,1.34Q38.8,16.81,37,20.38c-1.23,2.38-2.38,4.76-3.45,7.12a49,49,0,0,0-2.74,7.3.55.55,0,0,1-.08.3.9.9,0,0,0-.09.34l-.08.33a2.27,2.27,0,0,0,0,.64.47.47,0,0,0,.11.25.53.53,0,0,0,.23.16.45.45,0,0,0,.23,0,.53.53,0,0,0,.25,0l.26-.08.27-.14.25-.17a2.48,2.48,0,0,0,.26-.19l.23-.19.22-.19L33,35.7a34.24,34.24,0,0,0,3.14-3c.44-.46,1-1.1,1.74-1.91s1.39-1.56,2-2.23,1.25-1.29,1.84-1.82A2.26,2.26,0,0,1,43.86,26c.63.19,1.11.81,1.45,1.86a7.55,7.55,0,0,1,.3,1.63c0,.6.08,1.23.1,1.89A11.37,11.37,0,0,0,45.86,33a7.63,7.63,0,0,0,2.3,4.17,10.2,10.2,0,0,0,4.61,2.6A10.81,10.81,0,0,0,58.1,39.9Zm-14.21-13c0,.07.06.06.13,0s.07-.09,0-.09H43.9Z"/><path class="cls-1" d="M71,38.83a.67.67,0,0,1,.23.1c.08.07.1.12,0,.17a1,1,0,0,1-.23.12,1.55,1.55,0,0,1-.36.08l-.27.05-.47.1-.47.12-1,.21-.94.22-1.42.32-1.41.33A1.61,1.61,0,0,1,65,41a1.25,1.25,0,0,1,0,1.13,1.78,1.78,0,0,1-.8.76,3.13,3.13,0,0,1-1.16.35h-.49a2.76,2.76,0,0,1-.57-.06,2.58,2.58,0,0,1-.53-.19.88.88,0,0,1-.37-.32.79.79,0,0,1-.11-.5,1.32,1.32,0,0,1,.08-.33c0-.1.07-.2.11-.3l.16-.33a2.59,2.59,0,0,0,.14-.29c.35-.76.56-1.2.62-1.34l.32-.67a2.07,2.07,0,0,0,.15-.34c.06-.15.11-.26.15-.34l.31-.67a2,2,0,0,1,.18-.32,1,1,0,0,1,.34-.26,1.12,1.12,0,0,1,.87.19c.39.22.54.42.45.61a1.05,1.05,0,0,1-.24.61c-.06.08-.13.2-.22.35l-.17.28s-.17.28-.32.49a.66.66,0,0,1,.17.12,1,1,0,0,1,.3.39c1.35-.24,2.32-.42,2.9-.54a7.42,7.42,0,0,0,1.16-.23l.85-.17L69.8,39c.27-.07.51-.12.69-.15A2.9,2.9,0,0,1,71,38.83Zm-6.69,2.32a1.27,1.27,0,0,0-.18-.37h-.37a.66.66,0,0,1-.61-.21c-.06.11-.16.27-.29.47l-.31.47-.19.28-.21.35a.94.94,0,0,0-.12.22,1.21,1.21,0,0,0-.05.18h.2a2.91,2.91,0,0,0,.59,0A2.4,2.4,0,0,0,63.9,42a1,1,0,0,0,.44-.89Z"/><path class="cls-1" d="M91.32,39a.49.49,0,0,1,.43.14c.17.12.2.2.1.25h0c-.81.23-2,.65-3.67,1.23s-2.89,1-3.76,1.24A4,4,0,0,1,82.7,42a3.51,3.51,0,0,1-1.62-.6,2.39,2.39,0,0,1-1-1.13,1.64,1.64,0,0,1-.12-.76v-.16a.24.24,0,0,1,0-.12V39.1h-.47a10.75,10.75,0,0,0-1.49.47c-.49.19-1.09.46-1.8.79L74.78,41l-.76.34-.78.28a6.74,6.74,0,0,1-.88.24,5.29,5.29,0,0,1-.8.06,2.86,2.86,0,0,1-.82-.12,1.94,1.94,0,0,1-1.29-2.71c.62-1.56,1.28-2.35,2-2.36A1,1,0,0,1,72,37a.76.76,0,0,1,.33.38,1.91,1.91,0,0,1,.1.53,1.39,1.39,0,0,1-.08.57c-.16.52-.35,1-.56,1.52a.38.38,0,0,1-.06.19l-.09.24a.51.51,0,0,1-.09.16.48.48,0,0,1-.22.12A8.58,8.58,0,0,0,73,40.34c.57-.19,1.12-.39,1.63-.61l1.56-.64a11.7,11.7,0,0,1,1.64-.55,7.72,7.72,0,0,1,1.66-.23,2.28,2.28,0,0,1,1,.22,1.07,1.07,0,0,1,.62.69,1.24,1.24,0,0,1,0,.47,1.48,1.48,0,0,0,0,.42,1.16,1.16,0,0,0,.37.8,1.78,1.78,0,0,0,.83.45,2,2,0,0,0,.55.08,2.28,2.28,0,0,0,.64-.06l.53-.11a6.32,6.32,0,0,0,.62-.18l.53-.16c.59-.18,1.58-.49,3-1A31.69,31.69,0,0,1,91.32,39Z"/><path class="cls-1" d="M100.78,38.86a.71.71,0,0,1,.39.21c.16.16.17.26,0,.3h-.07a9.72,9.72,0,0,1-2.85,0,6.11,6.11,0,0,1-2.51-.93c-.08.1-.17.22-.25.34l-.21.32a3,3,0,0,0-.21.4l-.17.34-.18.41-.16.36c-.28.62-.51,1.08-.69,1.4a5.4,5.4,0,0,1-.61.89,1.26,1.26,0,0,1-.46.3,1.78,1.78,0,0,1-1.36-.1,1.86,1.86,0,0,1-1-.89,1.4,1.4,0,0,1-.09-.29,1.31,1.31,0,0,1,0-.28.76.76,0,0,1,0-.3l.06-.27a2,2,0,0,1,.1-.3l.09-.28.68-2.11a8.14,8.14,0,0,1,.38-1,.21.21,0,0,1,0-.11v-.4l.06-.06.07-.06.08,0H92a1.25,1.25,0,0,1,.66.11,1.17,1.17,0,0,1,.52.32,1.41,1.41,0,0,1,.21.38.81.81,0,0,1,0,.38,1,1,0,0,1-.06.38,4.74,4.74,0,0,1,1.14-1,.85.85,0,0,1,.73,0,1.17,1.17,0,0,1,.62.42,2.07,2.07,0,0,0,.8.67,4.66,4.66,0,0,0,1.15.36A25.85,25.85,0,0,0,100.78,38.86Z"/><path class="cls-1" d="M124.82,38.87a.88.88,0,0,1,.56.21c.25.18.34.32.26.42a.16.16,0,0,1-.13.08l-3.42,1-3.43,1-.47.14a4.84,4.84,0,0,1-.51.14l-.46.13-.52.14-.47.1-.52.1-.47.07h-.51a9.16,9.16,0,0,1-2.22-.09,7.51,7.51,0,0,1-2.07-.58,2.78,2.78,0,0,1-1.39-1.16,2,2,0,0,1-.22-1.52,27,27,0,0,0-4.48,2.12l-.46.27-.46.28L103,42a4,4,0,0,1-.47.21l-.44.15a1.86,1.86,0,0,1-.47.09h-.45a1.13,1.13,0,0,1-.48-.11,4,4,0,0,1-.46-.24,3.41,3.41,0,0,1-.48-.37c-.4-.38-.48-.69-.24-.95a13.55,13.55,0,0,1,1-.94,12.93,12.93,0,0,1,1.14-.94,10.73,10.73,0,0,1,1.27-.84,6.51,6.51,0,0,1,1.34-.55,3.86,3.86,0,0,1,1.35-.14,2.9,2.9,0,0,1,1,.3,1.57,1.57,0,0,1,.75.69l1.12-.32,1-.32a10.61,10.61,0,0,0,1.06-.42.83.83,0,0,1,.62,0,1.81,1.81,0,0,1,.72.39.44.44,0,0,1,.17.54l-.14.26c-.06.12-.13.23-.2.36l-.22.39-.2.42c0,.13-.1.26-.13.37a.81.81,0,0,0,0,.31.26.26,0,0,0,.1.2,1.3,1.3,0,0,0,.32.14l.37.09.45.07h.35a10.08,10.08,0,0,0,2.63-.11c1.14-.16,2.78-.49,4.92-1S123.86,39,124.82,38.87Z"/><path class="cls-1" d="M140.67,16.44a.6.6,0,0,1,.13.28.28.28,0,0,1-.1.27,1.18,1.18,0,0,1-.41.19A3.48,3.48,0,0,0,140,18c-.1.38-.18.77-.26,1.17s-.13.64-.15.72c-.43,1.56-.72,2.58-.87,3.05-.2.66-.5,1.7-.91,3.11s-.73,2.49-.95,3.22c-.52,1.68-1.39,4.67-2.63,9a.38.38,0,0,1,0,.15c-.07.26-.24.81-.48,1.65s-.44,1.48-.57,1.93q-3,10.68-3.68,13-1.08,3.89-1.65,6.15c-.33,1.32-.59,2.52-.78,3.59a2.41,2.41,0,0,1-.1.71,4.46,4.46,0,0,0-.11.77,2.64,2.64,0,0,1-.23.61,1.59,1.59,0,0,1-.47.56.83.83,0,0,1-.75,0,.91.91,0,0,1-.59-.49,2.06,2.06,0,0,1-.11-.65,2.26,2.26,0,0,1,.07-.63,5.27,5.27,0,0,1,.19-.56c.07-.16.15-.37.27-.62s.19-.45.26-.62c.29-.79.67-2,1.13-3.5.39-1.29,1.05-3.67,2-7.14q2.4-8.84,3.72-14l-.15.06-.15,0-1.37.55c-.76.32-1.43.63-2,.93a17.8,17.8,0,0,0-2,1.22,4.27,4.27,0,0,1-.44.3,3.42,3.42,0,0,1-.43.21,1.61,1.61,0,0,1-.53.1,2.57,2.57,0,0,1-1.22-.25,2.5,2.5,0,0,1-1-.76.51.51,0,0,1,0-.73h0a12.66,12.66,0,0,1,3.65-2.72,5.34,5.34,0,0,1,1.09-.42,2.8,2.8,0,0,1,1,0,4.52,4.52,0,0,1,1.8.7h0l.57-.19.73-.26.25-.08.34-.12a1,1,0,0,0,.22-.13h0q2.26-9,3.44-13.44c.13-.51.32-1.26.56-2.26s.47-1.9.68-2.69.43-1.54.66-2.23a4.09,4.09,0,0,1,.18-.49,2.5,2.5,0,0,1,.21-.35.73.73,0,0,1,.34-.26,1.41,1.41,0,0,1,.5-.07A1.76,1.76,0,0,1,140.67,16.44Z"/><path class="cls-1" d="M179.19,48a26.81,26.81,0,0,1,2.93.76c2.08.73,3.16,1.77,3.22,3.13a3.35,3.35,0,0,1-.13,1,.65.65,0,0,1-.15.17l-.28.19q-.15.09-.15.06a7.18,7.18,0,0,0-.48-1.1,4,4,0,0,0-.69-.89c-.28-.26-.53-.49-.77-.69a4.24,4.24,0,0,0-.95-.54l-1-.41a10.63,10.63,0,0,0-1.1-.32l-1.09-.25-1.15-.22-.86-.16c-2.63-.52-5.91-1.09-9.85-1.69q-8.16-1.26-9.86-1.54l-1.44-.22q-.57,1.65-1.69,5c-.37,1.08-.75,2.21-1.14,3.41-.06.21-.17.54-.31,1s-.25.76-.32,1-.08.27-.16.49l-.15.48a.63.63,0,0,1-.3.59,1.33,1.33,0,0,1,.55.32A.36.36,0,0,1,152,58a.71.71,0,0,1-.49.4,1.13,1.13,0,0,1-.68-.06,2.22,2.22,0,0,1-.65-.38,1.45,1.45,0,0,1-.4-.52,1.69,1.69,0,0,1-.08-.5,2.33,2.33,0,0,1,.06-.53,3.86,3.86,0,0,1,.17-.58,5.42,5.42,0,0,1,.22-.56l.22-.54q.12-.3.18-.48.84-2.55,1.11-3.42c.4-1.27,1-3.17,1.82-5.72a25,25,0,0,1-3.82-.84,1.89,1.89,0,0,1-1-.3h-.14a1.64,1.64,0,0,1-.35-.29,1.61,1.61,0,0,1-.21-.3.3.3,0,0,1,0-.26.36.36,0,0,1,.24-.18A53.72,53.72,0,0,0,155,40.25q2.85-8.86,5-15c1.3-3.79,2.81-8,4.5-12.57.39-1,1-2.71,2-5l-1.17.19a44,44,0,0,0-15.26,6.7,2.71,2.71,0,0,0-.35.24l-.42.33-.33.27c-.14.19-.33.48-.56.87a10.79,10.79,0,0,1-.67,1,5.38,5.38,0,0,1-.65.78,1.57,1.57,0,0,1-1.09.44,1.94,1.94,0,0,1-1.23-.37,1.29,1.29,0,0,1-.44-1.61,2.52,2.52,0,0,1,.39-.59c.18-.2.36-.38.54-.55a6.9,6.9,0,0,1,.66-.53l.65-.45.63-.4.47-.3q1.84-1.23,4-2.39T156.45,9a40.12,40.12,0,0,1,5.34-1.85,28.87,28.87,0,0,1,5.29-1L167.54,5c.2-.52.37-.94.51-1.27l.49-1.13c.19-.43.4-.85.6-1.23a11.9,11.9,0,0,1,.64-1.06.67.67,0,0,1,.55-.28,2,2,0,0,1,1.43.55.74.74,0,0,1,.29.55h0a1,1,0,0,1,.23.24,3.2,3.2,0,0,1,.25,1.14,4.16,4.16,0,0,1-.13,1.27A10.23,10.23,0,0,1,172,5c-.15.39-.33.82-.55,1.28a10.75,10.75,0,0,1,8.58,6.8,9.74,9.74,0,0,1,.77,3,10.54,10.54,0,0,1-.09,2.86,12.52,12.52,0,0,1-.85,2.75,16.14,16.14,0,0,1-1.39,2.59,22.5,22.5,0,0,1-1.82,2.42c-.7.81-1.38,1.54-2.05,2.19s-1.39,1.3-2.16,1.95a70.93,70.93,0,0,1-11.1,7.55c-1.16.66-2.6,1.41-4.31,2.27-.11.32-.28.8-.51,1.43s-.4,1.11-.51,1.43l-.17.5.95.16,1.12.2,1,.16c1,.16,2.58.42,4.86.77l5.24.84Q175.07,47.12,179.19,48ZM152,43.15l2,.46.54-1.71-1.25.63Zm9.14-13.93q-1,2.84-3.41,9.62c1-.5,1.9-1,2.76-1.45a66.33,66.33,0,0,0,11-7.24c.71-.59,1.39-1.19,2-1.79s1.27-1.27,1.93-2a23.51,23.51,0,0,0,1.75-2.23,16,16,0,0,0,1.38-2.41,12.94,12.94,0,0,0,.89-2.56,10,10,0,0,0,.21-2.67,9,9,0,0,0-.56-2.77A10.84,10.84,0,0,0,176.87,10a7.91,7.91,0,0,0-3.43-2.22A11.17,11.17,0,0,0,171,7.33l-.24.47-.27.53c-.07.15-.14.28-.19.41L166.46,17c-1.34,2.84-2.49,5.23-3.46,7.15-.61,1.59-1.25,3.28-1.9,5.07Z"/><path class="cls-1" d="M193.06,37.55l-.46.3-.42.28c-.12.07-.27.19-.46.33l-.4.31c-.08,0-.23.17-.45.35l-.4.32-.43.37-.4.32-1.28,1.07L187,42.33a9.08,9.08,0,0,1,1.2.16c1.45.24,2.37.4,2.76.49a.58.58,0,0,1,.25.12.3.3,0,0,1,.15.21.11.11,0,0,1-.05.15h-.22l-.84-.09-1-.1h-3.14a1.65,1.65,0,0,1-.32-.07,1.53,1.53,0,0,1-.27-.11h0a1.2,1.2,0,0,1-.21-.17.93.93,0,0,1-.36-.35.26.26,0,0,1,.07-.33c.52-.41,1.62-1.34,3.29-2.82.66-.57,1.28-1.09,1.85-1.54a1.5,1.5,0,0,0-.3,0h-.34a10.26,10.26,0,0,1-1.71-.45.86.86,0,0,0-.63,0,.68.68,0,0,0-.4.54c0,.12-.14.13-.36,0s-.25-.17-.27-.25a1,1,0,0,1,0-.65.83.83,0,0,1,.45-.45,1.4,1.4,0,0,1,.45-.1h.41l.48.11.41.1a9.74,9.74,0,0,0,3.61.05,1,1,0,0,1,.53.07,2,2,0,0,1,.5.3,1.46,1.46,0,0,1,.16.19.82.82,0,0,1,.1.26C193.2,37.43,193.16,37.5,193.06,37.55Z"/><path class="cls-1" d="M210.8,38.87a.88.88,0,0,1,.56.21c.25.18.34.32.26.42a.16.16,0,0,1-.13.08c-3.92,1.14-6.11,1.77-6.55,1.91a25,25,0,0,1-4,.93,10,10,0,0,1-3.89-.41,5.64,5.64,0,0,1-.81-.31,5.73,5.73,0,0,1-.75-.45,2.11,2.11,0,0,1-.61-.65,1.67,1.67,0,0,1-.28-.81,1.9,1.9,0,0,1,.46-1.46,3.85,3.85,0,0,1,1.36-1,.91.91,0,0,1,.61,0,1.85,1.85,0,0,1,.69.37.49.49,0,0,1,.18.54c-.08.17-.19.41-.35.7s-.26.49-.31.61a1.8,1.8,0,0,0-.21.63.61.61,0,0,0,0,.19v.17l.16.06.29.06.29.07H198l.17.05h.12a8.92,8.92,0,0,0,2.63,0,51.18,51.18,0,0,0,5.12-1C208.2,39.26,209.87,39,210.8,38.87Zm-15-2.94-.13-.09a.49.49,0,0,1-.12-.13.11.11,0,0,1,0-.15q.12-.15.66-.72a7.93,7.93,0,0,1,.71-.59,6.19,6.19,0,0,1,.9-.52l.38-.19.33-.1a1.48,1.48,0,0,1,.42,0,.82.82,0,0,1,.65.37.29.29,0,0,1,0,.13h0l-.06.16-.2.13a3.18,3.18,0,0,1-.4.23l-.39.22L198,35l-.42.24-.45.24-.89.46a.53.53,0,0,1-.46,0Z"/><path class="cls-1" d="M227,38.8a.39.39,0,0,1,.26,0,.57.57,0,0,1,.27.16c.08.08.09.15,0,.22q-3.1,3.54-7.78,8.44c-.68,2.51-1.32,4.83-1.93,7s-1.24,4.54-2,7.25c-.08.31-.33,1.39-.77,3.24s-.8,3.26-1.11,4.21l-.16.5a3.09,3.09,0,0,1-.24.67,5.41,5.41,0,0,1-.34.78c-.11.22-.24.46-.39.73a2.36,2.36,0,0,1-.47.62,1.77,1.77,0,0,1-.5.36.68.68,0,0,1-.56,0,1.35,1.35,0,0,1-.58-.45,3.14,3.14,0,0,1-.49-.85,6.09,6.09,0,0,1-.31-.94q-.1-.42-.24-1.08c-.09-.44-.16-.74-.2-.91A22.28,22.28,0,0,0,208,64.47a8.56,8.56,0,0,0-.53-.93l-.64-1a6.33,6.33,0,0,1-.52-1,3.18,3.18,0,0,1-.24-1,1.84,1.84,0,0,1,.09-.57,2.23,2.23,0,0,1,.24-.49,3.94,3.94,0,0,1,.36-.45c.16-.17.3-.3.42-.41l.46-.38.41-.36q2.73-2.48,6.28-6l.92-.94,1.07-1.11.92-1q1.42-5.67,2.75-10.14l-.21.06-.25.07-.2.06c-.34.1-.84.28-1.51.54a28.44,28.44,0,0,0-2.93,1.31c-.3.15-.73.41-1.32.77s-1,.63-1.33.79a2.35,2.35,0,0,1-1.63.13,2.73,2.73,0,0,1-1.4-.9.52.52,0,0,1,0-.72l0,0a13.14,13.14,0,0,1,2.4-2,8.83,8.83,0,0,1,2.67-1.3,4.2,4.2,0,0,1,1-.06,2.86,2.86,0,0,1,1,.27,1.64,1.64,0,0,1,.74.66l.23-.09.26-.09.74-.2.88-.25c.26-.08.49-.17.72-.26h0c0-.12.14-.2.35-.22a1.14,1.14,0,0,1,.45,0,2,2,0,0,1,.54.19,1.92,1.92,0,0,1,.76.43.63.63,0,0,1,.24.58c-.53,2.13-1.14,4.54-1.86,7.24Q224.59,41.18,227,38.8Zm-13.15,25q1.41-6.93,2.9-13l-.91.94-1,1q-3.06,3.09-5.63,5.43l-.46.4-.48.42c-.1.09-.23.23-.4.41a3.24,3.24,0,0,0-.37.46,4.09,4.09,0,0,0-.25.46,1.65,1.65,0,0,0-.13.53,1.75,1.75,0,0,0,.06.56,2.37,2.37,0,0,0,.22.65c.13.23.32.61.6,1.11s.51,1,.7,1.35a11.72,11.72,0,0,1,.52,1.14,27.67,27.67,0,0,1,1.2,3.78,16.68,16.68,0,0,0,.71,2.31.54.54,0,0,0,.09.27.6.6,0,0,0,.06.19h.09a.4.4,0,0,0,.2-.09.56.56,0,0,0,.23-.25,4.34,4.34,0,0,0,.2-.5l.11-.33a18.45,18.45,0,0,0,.6-1.82c.18-.67.32-1.25.41-1.73s.22-1.12.37-1.93.28-1.43.36-1.81Z"/><path class="cls-1" d="M249.15,38.87a.88.88,0,0,1,.56.21c.25.18.34.32.26.42a.16.16,0,0,1-.13.08l-3.42,1-3.43,1-.46.14-.51.14-.47.13-.51.14-.48.1-.52.1a3.81,3.81,0,0,1-.47.07h-.51a9.16,9.16,0,0,1-2.22-.09,7.51,7.51,0,0,1-2.07-.58,2.78,2.78,0,0,1-1.39-1.16,2,2,0,0,1-.22-1.52,27,27,0,0,0-4.48,2.12l-.46.27-.46.28-.45.24a3.82,3.82,0,0,1-.46.21l-.45.15a1.86,1.86,0,0,1-.47.09h-.45a1.13,1.13,0,0,1-.48-.11,4,4,0,0,1-.46-.24,3.41,3.41,0,0,1-.48-.37c-.4-.38-.48-.69-.24-.95a13.55,13.55,0,0,1,1-.94,12.93,12.93,0,0,1,1.14-.94,10.73,10.73,0,0,1,1.27-.84,6.51,6.51,0,0,1,1.34-.55,3.86,3.86,0,0,1,1.35-.14,2.9,2.9,0,0,1,1,.3,1.7,1.7,0,0,1,.74.69L232.8,38c.22-.07.53-.17.94-.32a10.61,10.61,0,0,0,1.06-.42.86.86,0,0,1,.63,0,1.9,1.9,0,0,1,.71.39.44.44,0,0,1,.17.54c0,.06-.07.14-.14.26l-.2.36-.22.39c-.07.15-.14.29-.19.42a2.35,2.35,0,0,0-.14.37.81.81,0,0,0,0,.31.26.26,0,0,0,.1.2,1.3,1.3,0,0,0,.32.14l.37.09.45.07H237a10.08,10.08,0,0,0,2.63-.11c1.15-.16,2.78-.48,4.92-1A39.51,39.51,0,0,1,249.15,38.87Z"/></g></g></g></g></svg>